<?xml version="1.0" encoding="UTF-8" standalone="no"?>
<!DOCTYPE svg PUBLIC "-//W3C//DTD SVG 1.1//EN" "http://www.w3.org/Graphics/SVG/1.1/DTD/svg11.dtd">
<!-- Created with Vectornator (http://vectornator.io/) -->
<svg height="100%" stroke-miterlimit="10" style="fill-rule:nonzero;clip-rule:evenodd;stroke-linecap:round;stroke-linejoin:round;" version="1.1" viewBox="0 0 655.944 211.604" width="100%" xml:space="preserve" xmlns="http://www.w3.org/2000/svg" xmlns:xlink="http://www.w3.org/1999/xlink">
<defs/>
<g id="Layer-1">
<path d="M162.687 53.7285C186.314 41.5616 204.907 54.5754 210.723 60.5808C222.301 72.5363 221.203 90.9955 222.381 108.769C234.501 105.623 248.486 101.697 256.759 118.132C266.035 136.56 260.546 172.512 240.838 172.914C177.147 174.213 113.443 174.009 49.7461 173.7C34.4324 173.625 17.5029 164.11 12.3791 142.558C5.44785 113.402 13.6443 84.9241 37.1963 75.3071C41.9957 73.3474 59.5985 69.7426 60.1715 68.4681C68.0417 50.9607 82.9218 37.5705 111.915 37.6733C145.342 37.7918 159.399 44.6708 162.687 53.7285Z" fill="#8352d1" fill-rule="nonzero" opacity="1" stroke="none"/>
<g fill="#8352d1" opacity="1" stroke="none">
<path d="M335.111 52.625L303.986 35.375C302.423 34.5 301.384 33.7188 300.868 33.0312C300.353 32.3437 300.095 31.4688 300.095 30.4062C300.095 29.0625 300.579 27.9063 301.548 26.9375C302.517 25.9687 303.657 25.4844 304.97 25.4844C305.782 25.4844 307.032 25.9375 308.72 26.8438L355.079 52.625L308.72 78.4062C307.032 79.3438 305.782 79.8125 304.97 79.8125C303.657 79.8125 302.517 79.3281 301.548 78.3594C300.579 77.3906 300.095 76.2188 300.095 74.8438C300.095 73.7812 300.353 72.9063 300.868 72.2188C301.384 71.5312 302.423 70.75 303.986 69.875L335.111 52.625Z"/>
<path d="M410.173 108.828L357.392 108.828C355.079 108.828 353.431 108.391 352.446 107.516C351.462 106.641 350.97 105.484 350.97 104.047C350.97 102.609 351.462 101.445 352.446 100.555C353.431 99.6641 355.079 99.2188 357.392 99.2188L410.173 99.2188C412.454 99.2188 414.087 99.6641 415.071 100.555C416.056 101.445 416.548 102.609 416.548 104.047C416.548 105.453 416.064 106.602 415.095 107.492C414.126 108.383 412.486 108.828 410.173 108.828Z"/>
<path d="M457.251 25.625C457.845 24.8125 458.493 24.2031 459.196 23.7969C459.9 23.3906 460.657 23.1875 461.47 23.1875C462.876 23.1875 464.025 23.6719 464.915 24.6406C465.806 25.6094 466.251 27.25 466.251 29.5625L466.251 37.7188C466.251 40.0313 465.806 41.6797 464.915 42.6641C464.025 43.6484 462.876 44.1406 461.47 44.1406C460.189 44.1406 459.157 43.7813 458.376 43.0625C457.595 42.3437 457.017 41 456.642 39.0312C456.423 37.7187 455.986 36.7031 455.329 35.9844C454.048 34.5781 452.259 33.4531 449.962 32.6094C447.665 31.7656 445.361 31.3438 443.048 31.3438C440.173 31.3438 437.532 31.9687 435.126 33.2188C432.72 34.4688 430.595 36.5 428.751 39.3125C426.907 42.125 425.986 45.4687 425.986 49.3438L425.986 55.5781C425.986 60.2031 427.665 64.0625 431.025 67.1562C434.384 70.25 439.048 71.7969 445.017 71.7969C448.579 71.7969 451.595 71.3125 454.064 70.3438C455.501 69.7812 457.032 68.6719 458.657 67.0156C459.657 66.0156 460.439 65.3672 461.001 65.0703C461.564 64.7734 462.204 64.625 462.923 64.625C464.204 64.625 465.329 65.1094 466.298 66.0781C467.267 67.0469 467.751 68.1875 467.751 69.5C467.751 70.8125 467.095 72.2187 465.782 73.7188C463.876 75.9063 461.423 77.625 458.423 78.875C454.392 80.5625 449.939 81.4062 445.064 81.4062C439.376 81.4062 434.251 80.2344 429.689 77.8906C426.001 76.0156 422.861 73.0547 420.267 69.0078C417.673 64.9609 416.376 60.5469 416.376 55.7656L416.376 49.25C416.376 44.25 417.54 39.5859 419.868 35.2578C422.196 30.9297 425.423 27.5938 429.548 25.25C433.673 22.9062 438.048 21.7344 442.673 21.7344C445.454 21.7344 448.056 22.0547 450.478 22.6953C452.9 23.3359 455.157 24.3125 457.251 25.625Z"/>
<path d="M525.751 59.5156C525.751 63.2031 524.728 66.7734 522.681 70.2266C520.634 73.6797 517.587 76.4297 513.54 78.4766C509.493 80.5234 505.267 81.5469 500.861 81.5469C496.486 81.5469 492.298 80.5391 488.298 78.5234C484.298 76.5078 481.251 73.7656 479.157 70.2969C477.064 66.8281 476.017 63.2031 476.017 59.4219C476.017 55.5781 477.079 51.8047 479.204 48.1016C481.329 44.3984 484.384 41.4844 488.368 39.3594C492.353 37.2344 496.517 36.1719 500.861 36.1719C505.236 36.1719 509.446 37.2578 513.493 39.4297C517.54 41.6016 520.595 44.5234 522.657 48.1953C524.72 51.8672 525.751 55.6406 525.751 59.5156ZM516.142 59.5625C516.142 56.4687 515.032 53.625 512.814 51.0312C509.782 47.5312 505.798 45.7812 500.861 45.7812C496.517 45.7812 492.892 47.1719 489.986 49.9531C487.079 52.7344 485.626 55.9531 485.626 59.6094C485.626 62.6094 487.095 65.4141 490.032 68.0234C492.97 70.6328 496.579 71.9375 500.861 71.9375C505.173 71.9375 508.798 70.6328 511.736 68.0234C514.673 65.4141 516.142 62.5938 516.142 59.5625Z"/>
<path d="M581.454 19.2031L581.454 70.3906L583.095 70.3906C585.376 70.3906 587.017 70.8359 588.017 71.7266C589.017 72.6172 589.517 73.7812 589.517 75.2188C589.517 76.625 589.025 77.7734 588.04 78.6641C587.056 79.5547 585.407 80 583.095 80L571.845 80L571.845 77.6562C569.657 78.9375 567.368 79.9062 564.978 80.5625C562.587 81.2188 560.111 81.5469 557.548 81.5469C550.329 81.5469 544.517 79.4609 540.111 75.2891C535.704 71.1172 533.501 65.9219 533.501 59.7031C533.501 53.2031 535.814 47.6563 540.439 43.0625C545.064 38.4687 550.704 36.1719 557.361 36.1719C559.861 36.1719 562.314 36.5547 564.72 37.3203C567.126 38.0859 569.501 39.2344 571.845 40.7656L571.845 28.8125L570.204 28.8125C567.892 28.8125 566.243 28.3672 565.259 27.4766C564.275 26.5859 563.782 25.4375 563.782 24.0312C563.782 22.5937 564.275 21.4297 565.259 20.5391C566.243 19.6484 567.892 19.2031 570.204 19.2031L581.454 19.2031ZM571.845 59.9844C571.845 56.0156 570.454 52.6563 567.673 49.9062C564.892 47.1562 561.486 45.7812 557.454 45.7812C553.454 45.7812 550.064 47.1562 547.282 49.9062C544.501 52.6563 543.111 55.9687 543.111 59.8438C543.111 63.375 544.361 66.2734 546.861 68.5391C549.361 70.8047 552.892 71.9375 557.454 71.9375C561.986 71.9375 565.517 70.8047 568.048 68.5391C570.579 66.2734 571.845 63.4219 571.845 59.9844Z"/>
<path d="M642.126 63.5938L602.704 63.5938C603.704 66.0938 605.478 68.1094 608.025 69.6406C610.571 71.1719 614.017 71.9375 618.361 71.9375C621.923 71.9375 626.657 71.1719 632.564 69.6406C635.001 69.0156 636.689 68.7031 637.626 68.7031C638.907 68.7031 639.986 69.1562 640.861 70.0625C641.736 70.9688 642.173 72.1094 642.173 73.4844C642.173 74.7344 641.704 75.7969 640.767 76.6719C639.517 77.8281 636.47 78.9297 631.626 79.9766C626.782 81.0234 622.126 81.5469 617.657 81.5469C609.97 81.5469 603.821 79.375 599.212 75.0312C594.603 70.6875 592.298 65.3438 592.298 59C592.298 52.25 594.79 46.7578 599.775 42.5234C604.759 38.2891 610.501 36.1719 617.001 36.1719C620.907 36.1719 624.493 36.8594 627.759 38.2344C631.025 39.6094 633.454 41.0937 635.048 42.6875C637.298 45 639.157 47.8594 640.626 51.2656C641.626 53.6406 642.126 56.3906 642.126 59.5156L642.126 63.5938ZM631.486 53.9844C630.017 51.2344 628.095 49.1797 625.72 47.8203C623.345 46.4609 620.517 45.7812 617.236 45.7812C613.986 45.7812 611.173 46.4609 608.798 47.8203C606.423 49.1797 604.486 51.2344 602.986 53.9844L631.486 53.9844Z"/>
<path d="M315.048 167.297L315.048 179.391L318.517 179.391C320.829 179.391 322.478 179.836 323.462 180.727C324.446 181.617 324.939 182.781 324.939 184.219C324.939 185.625 324.446 186.773 323.462 187.664C322.478 188.555 320.829 189 318.517 189L303.939 189C301.626 189 299.978 188.555 298.993 187.664C298.009 186.773 297.517 185.609 297.517 184.172C297.517 182.766 298.017 181.617 299.017 180.727C300.017 179.836 301.657 179.391 303.939 179.391L305.439 179.391L305.439 141.797L303.939 141.797C301.626 141.797 299.978 141.352 298.993 140.461C298.009 139.57 297.517 138.406 297.517 136.969C297.517 135.531 298.009 134.367 298.993 133.477C299.978 132.586 301.626 132.141 303.939 132.141L325.689 132.188C332.47 132.188 337.728 133.867 341.462 137.227C345.196 140.586 347.064 144.672 347.064 149.484C347.064 152.484 346.189 155.211 344.439 157.664C342.689 160.117 340.048 162.297 336.517 164.203C338.548 165.984 340.72 168.266 343.032 171.047C344.47 172.828 346.407 175.609 348.845 179.391C351.282 179.391 352.892 179.641 353.673 180.141C355.079 181.109 355.782 182.469 355.782 184.219C355.782 185.625 355.298 186.773 354.329 187.664C353.361 188.555 351.72 189 349.407 189L343.923 189C336.142 176.969 329.689 169.734 324.564 167.297L315.048 167.297ZM315.048 157.688L322.548 157.688C325.329 157.688 327.814 157.266 330.001 156.422C332.939 155.297 334.915 154.109 335.931 152.859C336.946 151.609 337.454 150.375 337.454 149.156C337.454 147.344 336.486 145.664 334.548 144.117C332.611 142.57 329.782 141.797 326.064 141.797L315.048 141.797L315.048 157.688Z"/>
<path d="M407.689 172.594L368.267 172.594C369.267 175.094 371.04 177.109 373.587 178.641C376.134 180.172 379.579 180.938 383.923 180.938C387.486 180.938 392.22 180.172 398.126 178.641C400.564 178.016 402.251 177.703 403.189 177.703C404.47 177.703 405.548 178.156 406.423 179.062C407.298 179.969 407.736 181.109 407.736 182.484C407.736 183.734 407.267 184.797 406.329 185.672C405.079 186.828 402.032 187.93 397.189 188.977C392.345 190.023 387.689 190.547 383.22 190.547C375.532 190.547 369.384 188.375 364.775 184.031C360.165 179.687 357.861 174.344 357.861 168C357.861 161.25 360.353 155.758 365.337 151.523C370.321 147.289 376.064 145.172 382.564 145.172C386.47 145.172 390.056 145.859 393.321 147.234C396.587 148.609 399.017 150.094 400.611 151.688C402.861 154 404.72 156.859 406.189 160.266C407.189 162.641 407.689 165.391 407.689 168.516L407.689 172.594ZM397.048 162.984C395.579 160.234 393.657 158.18 391.282 156.82C388.907 155.461 386.079 154.781 382.798 154.781C379.548 154.781 376.736 155.461 374.361 156.82C371.986 158.18 370.048 160.234 368.548 162.984L397.048 162.984Z"/>
<path d="M427.345 146.438L427.345 149.156C428.907 147.625 430.321 146.57 431.587 145.992C432.853 145.414 434.314 145.125 435.97 145.125C437.376 145.125 438.767 145.469 440.142 146.156C441.517 146.844 442.861 147.875 444.173 149.25C445.829 147.875 447.509 146.852 449.212 146.18C450.915 145.508 452.657 145.172 454.439 145.172C458.001 145.172 460.892 146.125 463.111 148.031C466.048 150.531 467.517 153.812 467.517 157.875L467.517 179.391C469.517 179.391 471.001 179.844 471.97 180.75C472.939 181.656 473.423 182.812 473.423 184.219C473.423 185.625 472.939 186.773 471.97 187.664C471.001 188.555 469.361 189 467.048 189L457.907 189L457.907 158.672C457.907 157.203 457.642 156.188 457.111 155.625C456.579 155.062 455.767 154.781 454.673 154.781C453.611 154.781 452.626 155.062 451.72 155.625C450.564 156.406 449.157 157.875 447.501 160.031L447.501 179.391C449.501 179.391 450.986 179.844 451.954 180.75C452.923 181.656 453.407 182.812 453.407 184.219C453.407 185.625 452.923 186.773 451.954 187.664C450.986 188.555 449.345 189 447.032 189L437.892 189L437.892 158.672C437.892 157.234 437.618 156.227 437.071 155.648C436.525 155.07 435.704 154.781 434.611 154.781C433.486 154.781 432.376 155.133 431.282 155.836C430.189 156.539 428.876 157.937 427.345 160.031L427.345 179.391C429.345 179.391 430.837 179.844 431.821 180.75C432.806 181.656 433.298 182.812 433.298 184.219C433.298 185.625 432.806 186.773 431.821 187.664C430.837 188.555 429.189 189 426.876 189L418.204 189C415.892 189 414.243 188.555 413.259 187.664C412.275 186.773 411.782 185.609 411.782 184.172C411.782 182.766 412.267 181.617 413.236 180.727C414.204 179.836 415.704 179.391 417.736 179.391L417.736 156.047C415.704 156.047 414.204 155.594 413.236 154.688C412.267 153.781 411.782 152.625 411.782 151.219C411.782 149.812 412.275 148.664 413.259 147.773C414.243 146.883 415.892 146.438 418.204 146.438L427.345 146.438Z"/>
<path d="M525.751 168.516C525.751 172.203 524.728 175.773 522.681 179.227C520.634 182.68 517.587 185.43 513.54 187.477C509.493 189.523 505.267 190.547 500.861 190.547C496.486 190.547 492.298 189.539 488.298 187.523C484.298 185.508 481.251 182.766 479.157 179.297C477.064 175.828 476.017 172.203 476.017 168.422C476.017 164.578 477.079 160.805 479.204 157.102C481.329 153.398 484.384 150.484 488.368 148.359C492.353 146.234 496.517 145.172 500.861 145.172C505.236 145.172 509.446 146.258 513.493 148.43C517.54 150.602 520.595 153.523 522.657 157.195C524.72 160.867 525.751 164.641 525.751 168.516ZM516.142 168.562C516.142 165.469 515.032 162.625 512.814 160.031C509.782 156.531 505.798 154.781 500.861 154.781C496.517 154.781 492.892 156.172 489.986 158.953C487.079 161.734 485.626 164.953 485.626 168.609C485.626 171.609 487.095 174.414 490.032 177.023C492.97 179.633 496.579 180.938 500.861 180.938C505.173 180.938 508.798 179.633 511.736 177.023C514.673 174.414 516.142 171.594 516.142 168.562Z"/>
<path d="M557.032 156.047L557.032 175.312C557.032 177.375 557.454 178.734 558.298 179.391C559.611 180.422 561.954 180.938 565.329 180.938C570.236 180.938 574.767 179.891 578.923 177.797C580.517 176.984 581.767 176.578 582.673 176.578C583.923 176.578 585.009 177.047 585.931 177.984C586.853 178.922 587.314 180.062 587.314 181.406C587.314 182.656 586.814 183.734 585.814 184.641C584.282 186.109 581.259 187.461 576.743 188.695C572.228 189.93 568.423 190.547 565.329 190.547C559.361 190.547 554.884 189.258 551.9 186.68C548.915 184.102 547.423 180.938 547.423 177.188L547.423 156.047L543.954 156.047C541.642 156.047 539.993 155.602 539.009 154.711C538.025 153.82 537.532 152.656 537.532 151.219C537.532 149.812 538.025 148.664 539.009 147.773C539.993 146.883 541.642 146.438 543.954 146.438L547.423 146.438L547.423 137.766C547.423 135.453 547.868 133.805 548.759 132.82C549.65 131.836 550.814 131.344 552.251 131.344C553.657 131.344 554.806 131.836 555.696 132.82C556.587 133.805 557.032 135.453 557.032 137.766L557.032 146.438L574.798 146.438C577.111 146.438 578.759 146.883 579.743 147.773C580.728 148.664 581.22 149.828 581.22 151.266C581.22 152.672 580.728 153.82 579.743 154.711C578.759 155.602 577.111 156.047 574.798 156.047L557.032 156.047Z"/>
<path d="M642.126 172.594L602.704 172.594C603.704 175.094 605.478 177.109 608.025 178.641C610.571 180.172 614.017 180.938 618.361 180.938C621.923 180.938 626.657 180.172 632.564 178.641C635.001 178.016 636.689 177.703 637.626 177.703C638.907 177.703 639.986 178.156 640.861 179.062C641.736 179.969 642.173 181.109 642.173 182.484C642.173 183.734 641.704 184.797 640.767 185.672C639.517 186.828 636.47 187.93 631.626 188.977C626.782 190.023 622.126 190.547 617.657 190.547C609.97 190.547 603.821 188.375 599.212 184.031C594.603 179.687 592.298 174.344 592.298 168C592.298 161.25 594.79 155.758 599.775 151.523C604.759 147.289 610.501 145.172 617.001 145.172C620.907 145.172 624.493 145.859 627.759 147.234C631.025 148.609 633.454 150.094 635.048 151.688C637.298 154 639.157 156.859 640.626 160.266C641.626 162.641 642.126 165.391 642.126 168.516L642.126 172.594ZM631.486 162.984C630.017 160.234 628.095 158.18 625.72 156.82C623.345 155.461 620.517 154.781 617.236 154.781C613.986 154.781 611.173 155.461 608.798 156.82C606.423 158.18 604.486 160.234 602.986 162.984L631.486 162.984Z"/>
</g>
</g>
</svg>
