<?xml version="1.0" encoding="UTF-8" standalone="no"?>
<!DOCTYPE svg PUBLIC "-//W3C//DTD SVG 1.1//EN" "http://www.w3.org/Graphics/SVG/1.1/DTD/svg11.dtd">
<!-- Created with Vectornator (http://vectornator.io/) -->
<svg height="100%" stroke-miterlimit="10" style="fill-rule:nonzero;clip-rule:evenodd;stroke-linecap:round;stroke-linejoin:round;" version="1.1" viewBox="0 0 569.85 318.32" width="100%" xml:space="preserve" xmlns="http://www.w3.org/2000/svg" xmlns:xlink="http://www.w3.org/1999/xlink">
<defs/>
<g id="Layer-1">
<path d="M344.289 45.1521C396.017 18.5142 436.725 47.0064 449.458 60.1545C474.808 86.3295 472.404 126.744 474.983 165.658C501.517 158.77 532.135 150.174 550.248 186.157C570.557 226.501 558.54 305.214 515.391 306.094C375.949 308.939 236.476 308.492 97.0191 307.814C63.4917 307.651 26.4267 286.819 15.2088 239.632C0.0336255 175.8 17.9787 113.451 69.5429 92.396C80.0507 88.1053 118.59 80.2132 119.844 77.4227C137.075 39.0926 169.653 9.77627 233.13 10.0013C306.315 10.2607 337.09 25.3216 344.289 45.1521Z" fill="#8352d1" fill-rule="nonzero" opacity="1" stroke="none"/>
<g fill="#ffffff" opacity="1" stroke="none">
<path d="M137.709 131.785L106.584 114.535C105.022 113.66 103.983 112.879 103.467 112.192C102.951 111.504 102.693 110.629 102.693 109.567C102.693 108.223 103.178 107.067 104.147 106.098C105.115 105.129 106.256 104.645 107.568 104.645C108.381 104.645 109.631 105.098 111.318 106.004L157.678 131.785L111.318 157.567C109.631 158.504 108.381 158.973 107.568 158.973C106.256 158.973 105.115 158.488 104.147 157.52C103.178 156.551 102.693 155.379 102.693 154.004C102.693 152.942 102.951 152.067 103.467 151.379C103.983 150.692 105.022 149.91 106.584 149.035L137.709 131.785Z"/>
<path d="M212.772 187.988L159.99 187.988C157.678 187.988 156.029 187.551 155.045 186.676C154.061 185.801 153.568 184.645 153.568 183.207C153.568 181.77 154.061 180.606 155.045 179.715C156.029 178.824 157.678 178.379 159.99 178.379L212.772 178.379C215.053 178.379 216.686 178.824 217.67 179.715C218.654 180.606 219.147 181.77 219.147 183.207C219.147 184.613 218.662 185.762 217.693 186.652C216.725 187.543 215.084 187.988 212.772 187.988Z"/>
<path d="M259.85 104.785C260.443 103.973 261.092 103.363 261.795 102.957C262.498 102.551 263.256 102.348 264.068 102.348C265.475 102.348 266.623 102.832 267.514 103.801C268.404 104.77 268.85 106.41 268.85 108.723L268.85 116.879C268.85 119.192 268.404 120.84 267.514 121.824C266.623 122.809 265.475 123.301 264.068 123.301C262.787 123.301 261.756 122.942 260.975 122.223C260.193 121.504 259.615 120.16 259.24 118.192C259.022 116.879 258.584 115.863 257.928 115.145C256.647 113.738 254.858 112.613 252.561 111.77C250.264 110.926 247.959 110.504 245.647 110.504C242.772 110.504 240.131 111.129 237.725 112.379C235.318 113.629 233.193 115.66 231.35 118.473C229.506 121.285 228.584 124.629 228.584 128.504L228.584 134.738C228.584 139.363 230.264 143.223 233.623 146.317C236.983 149.41 241.647 150.957 247.615 150.957C251.178 150.957 254.193 150.473 256.662 149.504C258.1 148.942 259.631 147.832 261.256 146.176C262.256 145.176 263.037 144.527 263.6 144.231C264.162 143.934 264.803 143.785 265.522 143.785C266.803 143.785 267.928 144.27 268.897 145.238C269.865 146.207 270.35 147.348 270.35 148.66C270.35 149.973 269.693 151.379 268.381 152.879C266.475 155.067 264.022 156.785 261.022 158.035C256.99 159.723 252.537 160.567 247.662 160.567C241.975 160.567 236.85 159.395 232.287 157.051C228.6 155.176 225.459 152.215 222.865 148.168C220.272 144.121 218.975 139.707 218.975 134.926L218.975 128.41C218.975 123.41 220.139 118.746 222.467 114.418C224.795 110.09 228.022 106.754 232.147 104.41C236.272 102.067 240.647 100.895 245.272 100.895C248.053 100.895 250.654 101.215 253.076 101.856C255.498 102.496 257.756 103.473 259.85 104.785Z"/>
<path d="M328.35 138.676C328.35 142.363 327.326 145.934 325.279 149.387C323.233 152.84 320.186 155.59 316.139 157.637C312.092 159.684 307.865 160.707 303.459 160.707C299.084 160.707 294.897 159.699 290.897 157.684C286.897 155.668 283.85 152.926 281.756 149.457C279.662 145.988 278.615 142.363 278.615 138.582C278.615 134.738 279.678 130.965 281.803 127.262C283.928 123.559 286.983 120.645 290.967 118.52C294.951 116.395 299.115 115.332 303.459 115.332C307.834 115.332 312.045 116.418 316.092 118.59C320.139 120.762 323.193 123.684 325.256 127.356C327.318 131.027 328.35 134.801 328.35 138.676ZM318.74 138.723C318.74 135.629 317.631 132.785 315.412 130.192C312.381 126.692 308.397 124.942 303.459 124.942C299.115 124.942 295.49 126.332 292.584 129.113C289.678 131.895 288.225 135.113 288.225 138.77C288.225 141.77 289.693 144.574 292.631 147.184C295.568 149.793 299.178 151.098 303.459 151.098C307.772 151.098 311.397 149.793 314.334 147.184C317.272 144.574 318.74 141.754 318.74 138.723Z"/>
<path d="M384.053 98.3634L384.053 149.551L385.693 149.551C387.975 149.551 389.615 149.996 390.615 150.887C391.615 151.777 392.115 152.942 392.115 154.379C392.115 155.785 391.623 156.934 390.639 157.824C389.654 158.715 388.006 159.16 385.693 159.16L374.443 159.16L374.443 156.817C372.256 158.098 369.967 159.067 367.576 159.723C365.186 160.379 362.709 160.707 360.147 160.707C352.928 160.707 347.115 158.621 342.709 154.449C338.303 150.277 336.1 145.082 336.1 138.863C336.1 132.363 338.412 126.817 343.037 122.223C347.662 117.629 353.303 115.332 359.959 115.332C362.459 115.332 364.912 115.715 367.318 116.481C369.725 117.246 372.1 118.395 374.443 119.926L374.443 107.973L372.803 107.973C370.49 107.973 368.842 107.527 367.858 106.637C366.873 105.746 366.381 104.598 366.381 103.192C366.381 101.754 366.873 100.59 367.858 99.6994C368.842 98.8087 370.49 98.3634 372.803 98.3634L384.053 98.3634ZM374.443 139.145C374.443 135.176 373.053 131.817 370.272 129.067C367.49 126.317 364.084 124.942 360.053 124.942C356.053 124.942 352.662 126.317 349.881 129.067C347.1 131.817 345.709 135.129 345.709 139.004C345.709 142.535 346.959 145.434 349.459 147.699C351.959 149.965 355.49 151.098 360.053 151.098C364.584 151.098 368.115 149.965 370.647 147.699C373.178 145.434 374.443 142.582 374.443 139.145Z"/>
<path d="M444.725 142.754L405.303 142.754C406.303 145.254 408.076 147.27 410.623 148.801C413.17 150.332 416.615 151.098 420.959 151.098C424.522 151.098 429.256 150.332 435.162 148.801C437.6 148.176 439.287 147.863 440.225 147.863C441.506 147.863 442.584 148.317 443.459 149.223C444.334 150.129 444.772 151.27 444.772 152.645C444.772 153.895 444.303 154.957 443.365 155.832C442.115 156.988 439.068 158.09 434.225 159.137C429.381 160.184 424.725 160.707 420.256 160.707C412.568 160.707 406.42 158.535 401.811 154.192C397.201 149.848 394.897 144.504 394.897 138.16C394.897 131.41 397.389 125.918 402.373 121.684C407.358 117.449 413.1 115.332 419.6 115.332C423.506 115.332 427.092 116.02 430.358 117.395C433.623 118.77 436.053 120.254 437.647 121.848C439.897 124.16 441.756 127.02 443.225 130.426C444.225 132.801 444.725 135.551 444.725 138.676L444.725 142.754ZM434.084 133.145C432.615 130.395 430.693 128.34 428.318 126.981C425.943 125.621 423.115 124.942 419.834 124.942C416.584 124.942 413.772 125.621 411.397 126.981C409.022 128.34 407.084 130.395 405.584 133.145L434.084 133.145Z"/>
<path d="M117.647 246.457L117.647 258.551L121.115 258.551C123.428 258.551 125.076 258.996 126.061 259.887C127.045 260.777 127.537 261.942 127.537 263.379C127.537 264.785 127.045 265.934 126.061 266.824C125.076 267.715 123.428 268.16 121.115 268.16L106.537 268.16C104.225 268.16 102.576 267.715 101.592 266.824C100.608 265.934 100.115 264.77 100.115 263.332C100.115 261.926 100.615 260.777 101.615 259.887C102.615 258.996 104.256 258.551 106.537 258.551L108.037 258.551L108.037 220.957L106.537 220.957C104.225 220.957 102.576 220.512 101.592 219.621C100.608 218.731 100.115 217.567 100.115 216.129C100.115 214.692 100.608 213.527 101.592 212.637C102.576 211.746 104.225 211.301 106.537 211.301L128.287 211.348C135.068 211.348 140.326 213.027 144.061 216.387C147.795 219.746 149.662 223.832 149.662 228.645C149.662 231.645 148.787 234.371 147.037 236.824C145.287 239.277 142.647 241.457 139.115 243.363C141.147 245.145 143.318 247.426 145.631 250.207C147.068 251.988 149.006 254.77 151.443 258.551C153.881 258.551 155.49 258.801 156.272 259.301C157.678 260.27 158.381 261.629 158.381 263.379C158.381 264.785 157.897 265.934 156.928 266.824C155.959 267.715 154.318 268.16 152.006 268.16L146.522 268.16C138.74 256.129 132.287 248.895 127.162 246.457L117.647 246.457ZM117.647 236.848L125.147 236.848C127.928 236.848 130.412 236.426 132.6 235.582C135.537 234.457 137.514 233.27 138.529 232.02C139.545 230.77 140.053 229.535 140.053 228.317C140.053 226.504 139.084 224.824 137.147 223.277C135.209 221.731 132.381 220.957 128.662 220.957L117.647 220.957L117.647 236.848Z"/>
<path d="M210.287 251.754L170.865 251.754C171.865 254.254 173.639 256.27 176.186 257.801C178.733 259.332 182.178 260.098 186.522 260.098C190.084 260.098 194.818 259.332 200.725 257.801C203.162 257.176 204.85 256.863 205.787 256.863C207.068 256.863 208.147 257.317 209.022 258.223C209.897 259.129 210.334 260.27 210.334 261.645C210.334 262.895 209.865 263.957 208.928 264.832C207.678 265.988 204.631 267.09 199.787 268.137C194.943 269.184 190.287 269.707 185.818 269.707C178.131 269.707 171.983 267.535 167.373 263.192C162.764 258.848 160.459 253.504 160.459 247.16C160.459 240.41 162.951 234.918 167.936 230.684C172.92 226.449 178.662 224.332 185.162 224.332C189.068 224.332 192.654 225.02 195.92 226.395C199.186 227.77 201.615 229.254 203.209 230.848C205.459 233.16 207.318 236.02 208.787 239.426C209.787 241.801 210.287 244.551 210.287 247.676L210.287 251.754ZM199.647 242.145C198.178 239.395 196.256 237.34 193.881 235.981C191.506 234.621 188.678 233.942 185.397 233.942C182.147 233.942 179.334 234.621 176.959 235.981C174.584 237.34 172.647 239.395 171.147 242.145L199.647 242.145Z"/>
<path d="M229.943 225.598L229.943 228.317C231.506 226.785 232.92 225.731 234.186 225.152C235.451 224.574 236.912 224.285 238.568 224.285C239.975 224.285 241.365 224.629 242.74 225.317C244.115 226.004 245.459 227.035 246.772 228.41C248.428 227.035 250.108 226.012 251.811 225.34C253.514 224.668 255.256 224.332 257.037 224.332C260.6 224.332 263.49 225.285 265.709 227.192C268.647 229.692 270.115 232.973 270.115 237.035L270.115 258.551C272.115 258.551 273.6 259.004 274.568 259.91C275.537 260.817 276.022 261.973 276.022 263.379C276.022 264.785 275.537 265.934 274.568 266.824C273.6 267.715 271.959 268.16 269.647 268.16L260.506 268.16L260.506 237.832C260.506 236.363 260.24 235.348 259.709 234.785C259.178 234.223 258.365 233.942 257.272 233.942C256.209 233.942 255.225 234.223 254.318 234.785C253.162 235.567 251.756 237.035 250.1 239.192L250.1 258.551C252.1 258.551 253.584 259.004 254.553 259.91C255.522 260.817 256.006 261.973 256.006 263.379C256.006 264.785 255.522 265.934 254.553 266.824C253.584 267.715 251.943 268.16 249.631 268.16L240.49 268.16L240.49 237.832C240.49 236.395 240.217 235.387 239.67 234.809C239.123 234.231 238.303 233.942 237.209 233.942C236.084 233.942 234.975 234.293 233.881 234.996C232.787 235.699 231.475 237.098 229.943 239.192L229.943 258.551C231.943 258.551 233.436 259.004 234.42 259.91C235.404 260.817 235.897 261.973 235.897 263.379C235.897 264.785 235.404 265.934 234.42 266.824C233.436 267.715 231.787 268.16 229.475 268.16L220.803 268.16C218.49 268.16 216.842 267.715 215.858 266.824C214.873 265.934 214.381 264.77 214.381 263.332C214.381 261.926 214.865 260.777 215.834 259.887C216.803 258.996 218.303 258.551 220.334 258.551L220.334 235.207C218.303 235.207 216.803 234.754 215.834 233.848C214.865 232.942 214.381 231.785 214.381 230.379C214.381 228.973 214.873 227.824 215.858 226.934C216.842 226.043 218.49 225.598 220.803 225.598L229.943 225.598Z"/>
<path d="M328.35 247.676C328.35 251.363 327.326 254.934 325.279 258.387C323.233 261.84 320.186 264.59 316.139 266.637C312.092 268.684 307.865 269.707 303.459 269.707C299.084 269.707 294.897 268.699 290.897 266.684C286.897 264.668 283.85 261.926 281.756 258.457C279.662 254.988 278.615 251.363 278.615 247.582C278.615 243.738 279.678 239.965 281.803 236.262C283.928 232.559 286.983 229.645 290.967 227.52C294.951 225.395 299.115 224.332 303.459 224.332C307.834 224.332 312.045 225.418 316.092 227.59C320.139 229.762 323.193 232.684 325.256 236.356C327.318 240.027 328.35 243.801 328.35 247.676ZM318.74 247.723C318.74 244.629 317.631 241.785 315.412 239.192C312.381 235.692 308.397 233.942 303.459 233.942C299.115 233.942 295.49 235.332 292.584 238.113C289.678 240.895 288.225 244.113 288.225 247.77C288.225 250.77 289.693 253.574 292.631 256.184C295.568 258.793 299.178 260.098 303.459 260.098C307.772 260.098 311.397 258.793 314.334 256.184C317.272 253.574 318.74 250.754 318.74 247.723Z"/>
<path d="M359.631 235.207L359.631 254.473C359.631 256.535 360.053 257.895 360.897 258.551C362.209 259.582 364.553 260.098 367.928 260.098C372.834 260.098 377.365 259.051 381.522 256.957C383.115 256.145 384.365 255.738 385.272 255.738C386.522 255.738 387.608 256.207 388.529 257.145C389.451 258.082 389.912 259.223 389.912 260.567C389.912 261.817 389.412 262.895 388.412 263.801C386.881 265.27 383.858 266.621 379.342 267.856C374.826 269.09 371.022 269.707 367.928 269.707C361.959 269.707 357.483 268.418 354.498 265.84C351.514 263.262 350.022 260.098 350.022 256.348L350.022 235.207L346.553 235.207C344.24 235.207 342.592 234.762 341.608 233.871C340.623 232.981 340.131 231.817 340.131 230.379C340.131 228.973 340.623 227.824 341.608 226.934C342.592 226.043 344.24 225.598 346.553 225.598L350.022 225.598L350.022 216.926C350.022 214.613 350.467 212.965 351.358 211.981C352.248 210.996 353.412 210.504 354.85 210.504C356.256 210.504 357.404 210.996 358.295 211.981C359.186 212.965 359.631 214.613 359.631 216.926L359.631 225.598L377.397 225.598C379.709 225.598 381.358 226.043 382.342 226.934C383.326 227.824 383.818 228.988 383.818 230.426C383.818 231.832 383.326 232.981 382.342 233.871C381.358 234.762 379.709 235.207 377.397 235.207L359.631 235.207Z"/>
<path d="M444.725 251.754L405.303 251.754C406.303 254.254 408.076 256.27 410.623 257.801C413.17 259.332 416.615 260.098 420.959 260.098C424.522 260.098 429.256 259.332 435.162 257.801C437.6 257.176 439.287 256.863 440.225 256.863C441.506 256.863 442.584 257.317 443.459 258.223C444.334 259.129 444.772 260.27 444.772 261.645C444.772 262.895 444.303 263.957 443.365 264.832C442.115 265.988 439.068 267.09 434.225 268.137C429.381 269.184 424.725 269.707 420.256 269.707C412.568 269.707 406.42 267.535 401.811 263.192C397.201 258.848 394.897 253.504 394.897 247.16C394.897 240.41 397.389 234.918 402.373 230.684C407.358 226.449 413.1 224.332 419.6 224.332C423.506 224.332 427.092 225.02 430.358 226.395C433.623 227.77 436.053 229.254 437.647 230.848C439.897 233.16 441.756 236.02 443.225 239.426C444.225 241.801 444.725 244.551 444.725 247.676L444.725 251.754ZM434.084 242.145C432.615 239.395 430.693 237.34 428.318 235.981C425.943 234.621 423.115 233.942 419.834 233.942C416.584 233.942 413.772 234.621 411.397 235.981C409.022 237.34 407.084 239.395 405.584 242.145L434.084 242.145Z"/>
</g>
</g>
</svg>
