<?xml version="1.0" encoding="UTF-8" standalone="no"?>
<!DOCTYPE svg PUBLIC "-//W3C//DTD SVG 1.1//EN" "http://www.w3.org/Graphics/SVG/1.1/DTD/svg11.dtd">
<!-- Created with Vectornator (http://vectornator.io/) -->
<svg height="100%" stroke-miterlimit="10" style="fill-rule:nonzero;clip-rule:evenodd;stroke-linecap:round;stroke-linejoin:round;" version="1.1" viewBox="0 0 351.26 199.72" width="100%" xml:space="preserve" xmlns="http://www.w3.org/2000/svg" xmlns:xlink="http://www.w3.org/1999/xlink">
<defs/>
<g id="Layer-1">
<path d="M211.393 31.1774C242.556 15.1294 267.08 32.2945 274.752 40.2156C290.024 55.9848 288.575 80.3323 290.129 103.776C306.115 99.6264 324.561 94.4479 335.473 116.126C347.708 140.431 340.468 187.852 314.473 188.382C230.466 190.096 146.441 189.827 62.4247 189.418C42.2261 189.32 19.8963 176.77 13.138 148.342C3.99575 109.886 14.8068 72.3242 45.8716 59.6395C52.2021 57.0546 75.42 52.3 76.1757 50.6188C86.5565 27.5268 106.183 9.86521 144.425 10.0008C188.515 10.1571 207.056 19.2305 211.393 31.1774Z" fill="#8352d1" fill-rule="nonzero" opacity="1" stroke="none"/>
<g fill="#ffffff" opacity="1" stroke="none">
<path d="M119.661 100.417L88.5356 83.1671C86.9731 82.2921 85.934 81.5109 85.4184 80.8234C84.9027 80.1359 84.6449 79.2609 84.6449 78.1984C84.6449 76.8546 85.1293 75.6984 86.0981 74.7296C87.0668 73.7609 88.2074 73.2765 89.5199 73.2765C90.3324 73.2765 91.5824 73.7296 93.2699 74.6359L139.629 100.417L93.2699 126.198C91.5824 127.136 90.3324 127.605 89.5199 127.605C88.2074 127.605 87.0668 127.12 86.0981 126.151C85.1293 125.183 84.6449 124.011 84.6449 122.636C84.6449 121.573 84.9027 120.698 85.4184 120.011C85.934 119.323 86.9731 118.542 88.5356 117.667L119.661 100.417Z"/>
<path d="M194.723 156.62L141.942 156.62C139.629 156.62 137.981 156.183 136.996 155.308C136.012 154.433 135.52 153.276 135.52 151.839C135.52 150.401 136.012 149.237 136.996 148.347C137.981 147.456 139.629 147.011 141.942 147.011L194.723 147.011C197.004 147.011 198.637 147.456 199.621 148.347C200.606 149.237 201.098 150.401 201.098 151.839C201.098 153.245 200.614 154.394 199.645 155.284C198.676 156.175 197.036 156.62 194.723 156.62Z"/>
<path d="M241.801 73.4171C242.395 72.6046 243.043 71.9952 243.746 71.589C244.45 71.1827 245.207 70.9796 246.02 70.9796C247.426 70.9796 248.575 71.464 249.465 72.4327C250.356 73.4015 250.801 75.0421 250.801 77.3546L250.801 85.5109C250.801 87.8234 250.356 89.4718 249.465 90.4562C248.575 91.4405 247.426 91.9327 246.02 91.9327C244.739 91.9327 243.707 91.5734 242.926 90.8546C242.145 90.1359 241.567 88.7921 241.192 86.8234C240.973 85.5109 240.536 84.4952 239.879 83.7765C238.598 82.3702 236.809 81.2452 234.512 80.4015C232.215 79.5577 229.911 79.1359 227.598 79.1359C224.723 79.1359 222.082 79.7609 219.676 81.0109C217.27 82.2609 215.145 84.2921 213.301 87.1046C211.457 89.9171 210.536 93.2609 210.536 97.1359L210.536 103.37C210.536 107.995 212.215 111.855 215.575 114.948C218.934 118.042 223.598 119.589 229.567 119.589C233.129 119.589 236.145 119.105 238.614 118.136C240.051 117.573 241.582 116.464 243.207 114.808C244.207 113.808 244.989 113.159 245.551 112.862C246.114 112.566 246.754 112.417 247.473 112.417C248.754 112.417 249.879 112.901 250.848 113.87C251.817 114.839 252.301 115.98 252.301 117.292C252.301 118.605 251.645 120.011 250.332 121.511C248.426 123.698 245.973 125.417 242.973 126.667C238.942 128.355 234.489 129.198 229.614 129.198C223.926 129.198 218.801 128.026 214.239 125.683C210.551 123.808 207.411 120.847 204.817 116.8C202.223 112.753 200.926 108.339 200.926 103.558L200.926 97.0421C200.926 92.0421 202.09 87.378 204.418 83.0499C206.746 78.7218 209.973 75.3859 214.098 73.0421C218.223 70.6984 222.598 69.5265 227.223 69.5265C230.004 69.5265 232.606 69.8468 235.028 70.4874C237.45 71.128 239.707 72.1046 241.801 73.4171Z"/>
</g>
</g>
</svg>
