<svg
  viewBox="0 0 32 32"
  xmlns="http://www.w3.org/2000/svg"
  xmlns:xlink="http://www.w3.org/1999/xlink"
>
  <g>
    <path d="M19.4365 7.47741C22.4513 5.51017 24.8238 7.61435 25.5659 8.58535C27.0433 10.5184 26.9032 13.503 27.0535 16.3769C28.6 15.8682 30.3845 15.2334 31.4401 17.8907C32.6237 20.8702 31.9233 26.6832 29.4086 26.7482C21.2817 26.9583 13.153 26.9253 5.02526 26.8753C3.07123 26.8632 0.911029 25.3248 0.257232 21.84C-0.627198 17.1259 0.418666 12.5214 3.4239 10.9664C4.03632 10.6495 6.28243 10.0667 6.35554 9.86062C7.35978 7.0299 9.25848 4.86486 12.958 4.88148C17.2233 4.90064 19.0169 6.0129 19.4365 7.47741Z" fill="#8352d1" fill-rule="nonzero" opacity="1" stroke="none"/>
    <g fill="#ffffff" opacity="1" stroke="none">
      <path d="M8.99068 17.6755L5.74849 15.8786C5.58573 15.7875 5.47749 15.7061 5.42378 15.6345C5.37007 15.5629 5.34321 15.4717 5.34321 15.361C5.34321 15.2211 5.39367 15.1006 5.49458 14.9997C5.59549 14.8988 5.71431 14.8483 5.85103 14.8483C5.93566 14.8483 6.06587 14.8955 6.24165 14.9899L11.0708 17.6755L6.24165 20.361C6.06587 20.4587 5.93566 20.5075 5.85103 20.5075C5.71431 20.5075 5.59549 20.4571 5.49458 20.3561C5.39367 20.2552 5.34321 20.1332 5.34321 19.9899C5.34321 19.8793 5.37007 19.7881 5.42378 19.7165C5.47749 19.6449 5.58573 19.5635 5.74849 19.4724L8.99068 17.6755Z"/>
      <path d="M17.7055 23.53L12.2075 23.53C11.9666 23.53 11.7949 23.4844 11.6923 23.3933C11.5898 23.3021 11.5385 23.1817 11.5385 23.0319C11.5385 22.8822 11.5898 22.7609 11.6923 22.6682C11.7949 22.5754 11.9666 22.529 12.2075 22.529L17.7055 22.529C17.9431 22.529 18.1132 22.5754 18.2158 22.6682C18.3183 22.7609 18.3696 22.8822 18.3696 23.0319C18.3696 23.1784 18.3191 23.298 18.2182 23.3908C18.1173 23.4836 17.9464 23.53 17.7055 23.53Z"/>
      <path d="M23.5053 14.863C23.5672 14.7783 23.6347 14.7149 23.708 14.6726C23.7812 14.6302 23.8601 14.6091 23.9448 14.6091C24.0913 14.6091 24.2109 14.6595 24.3037 14.7604C24.3964 14.8614 24.4428 15.0323 24.4428 15.2731L24.4428 16.1227C24.4428 16.3636 24.3964 16.5353 24.3037 16.6379C24.2109 16.7404 24.0913 16.7917 23.9448 16.7917C23.8113 16.7917 23.7039 16.7543 23.6225 16.6794C23.5411 16.6045 23.4809 16.4645 23.4418 16.2595C23.4191 16.1227 23.3735 16.017 23.3051 15.9421C23.1717 15.7956 22.9853 15.6784 22.746 15.5905C22.5068 15.5026 22.2667 15.4587 22.0258 15.4587C21.7264 15.4587 21.4513 15.5238 21.2006 15.654C20.95 15.7842 20.7286 15.9958 20.5366 16.2888C20.3445 16.5817 20.2485 16.93 20.2485 17.3337L20.2485 17.9831C20.2485 18.4649 20.4235 18.8669 20.7734 19.1892C21.1233 19.5114 21.6092 19.6726 22.2309 19.6726C22.602 19.6726 22.9161 19.6221 23.1733 19.5212C23.323 19.4626 23.4825 19.347 23.6518 19.1745C23.756 19.0703 23.8374 19.0028 23.8959 18.9719C23.9545 18.9409 24.0213 18.9255 24.0961 18.9255C24.2296 18.9255 24.3468 18.9759 24.4477 19.0768C24.5486 19.1778 24.5991 19.2966 24.5991 19.4333C24.5991 19.57 24.5307 19.7165 24.394 19.8727C24.1954 20.1006 23.9399 20.2796 23.6274 20.4099C23.2075 20.5856 22.7436 20.6735 22.2358 20.6735C21.6433 20.6735 21.1095 20.5515 20.6342 20.3073C20.2501 20.112 19.923 19.8036 19.6528 19.382C19.3826 18.9605 19.2475 18.5007 19.2475 18.0026L19.2475 17.3239C19.2475 16.8031 19.3688 16.3172 19.6113 15.8664C19.8538 15.4156 20.1899 15.0681 20.6196 14.8239C21.0493 14.5798 21.505 14.4577 21.9868 14.4577C22.2765 14.4577 22.5475 14.4911 22.7998 14.5578C23.052 14.6245 23.2872 14.7263 23.5053 14.863Z"/>
    </g>
  </g>
</svg>